<svg width="332" height="314" viewBox="0 0 332 314" fill="none" xmlns="http://www.w3.org/2000/svg">
<path d="M218.129 0.419434H268.451L312.58 135.903L271.548 165.322L218.129 0.419434Z" fill="black"/>
<path d="M206.516 0.806915L221.226 47.6455H49.3551L64.4518 0.0327148L206.516 0.806915Z" fill="black"/>
<path d="M175.935 58.8711H225.484L244.064 113.065L203.806 142.484L175.935 58.8711Z" fill="black"/>
<path d="M164.839 58.4839L180.581 106.484H91.1614L107.032 58.4839H164.839Z" fill="black"/>
<path d="M94.6453 58.7422H44.5809L0.710022 193.452L40.968 223.129L94.6453 58.7422Z" fill="black"/>
<path d="M137.226 117.065L87.6776 116.807L69.355 171.258L109.613 201.71L137.226 117.065Z" fill="black"/>
<path d="M135.419 159.903L119.936 207.387L165.871 241.968L206.645 212.29L135.419 159.903Z" fill="black"/>
<path d="M67.5486 182.097L51.2905 228.806L165.871 313.967L206.129 284.032L67.5486 182.097Z" fill="black"/>
<path d="M314.516 145.709L331.29 193.709L215.935 277.838L175.419 247.645L314.516 145.709Z" fill="black"/>
<path d="M246.645 124.032L262.129 171.516L215.677 205.839L175.161 175.903L246.645 124.032Z" fill="black"/>
</svg>
