<svg width="259" height="295" viewBox="0 0 259 295" fill="none" xmlns="http://www.w3.org/2000/svg">
<path d="M94.0849 0H10.4539C4.68036 0 0 4.68036 0 10.4539V282.255C0 288.028 4.68036 292.709 10.4539 292.709H94.0849C99.8584 292.709 104.539 288.028 104.539 282.255V10.4539C104.539 4.68036 99.8584 0 94.0849 0Z" fill="black"/>
<path d="M248.443 0H129.966C124.192 0 119.512 4.68036 119.512 10.4539V128.931C119.512 134.705 124.192 139.385 129.966 139.385H248.443C254.217 139.385 258.897 134.705 258.897 128.931V10.4539C258.897 4.68036 254.217 0 248.443 0Z" fill="black"/>
<path d="M248.443 155.047H129.966C124.192 155.047 119.512 159.727 119.512 165.501V283.978C119.512 289.752 124.192 294.432 129.966 294.432H248.443C254.217 294.432 258.897 289.752 258.897 283.978V165.501C258.897 159.727 254.217 155.047 248.443 155.047Z" fill="black"/>
</svg>
