<svg width="278" height="278" viewBox="0 0 278 278" fill="none" xmlns="http://www.w3.org/2000/svg">
<path fill-rule="evenodd" clip-rule="evenodd" d="M262.556 139C262.556 70.7621 207.238 15.4444 139 15.4444C70.7621 15.4444 15.4444 70.7621 15.4444 139C15.4444 207.238 70.7621 262.556 139 262.556C207.238 262.556 262.556 207.238 262.556 139ZM139 0C215.768 -9.15444e-07 278 62.2324 278 139C278 215.768 215.768 278 139 278C62.2324 278 9.15444e-07 215.768 0 139C-9.15444e-07 62.2324 62.2324 9.15444e-07 139 0Z" fill="black"/>
<path fill-rule="evenodd" clip-rule="evenodd" d="M173.279 52.9313C162.994 30.6584 150.325 20.4023 139 20.4023C127.675 20.4023 115.006 30.6584 104.721 52.9313C94.7321 74.5606 88.3488 104.983 88.3488 139C88.3488 173.017 94.7321 203.439 104.721 225.069C115.006 247.342 127.675 257.598 139 257.598C150.325 257.598 162.994 247.342 173.279 225.069C183.268 203.439 189.651 173.017 189.651 139C189.651 104.983 183.268 74.5606 173.279 52.9313ZM187.205 46.4552C198.327 70.5371 205 103.265 205 139C205 174.735 198.327 207.463 187.205 231.545C176.382 254.983 159.887 273 139 273C118.113 273 101.618 254.983 90.7945 231.545C79.6733 207.463 73 174.735 73 139C73 103.265 79.6733 70.5371 90.7945 46.4552C101.618 23.0168 118.113 5 139 5C159.887 5 176.382 23.0168 187.205 46.4552Z" fill="black"/>
<path fill-rule="evenodd" clip-rule="evenodd" d="M272 142L12 142L12 127L272 127V142Z" fill="black"/>
</svg>
