<svg width="840" height="115" viewBox="0 0 840 115" fill="none" xmlns="http://www.w3.org/2000/svg">
<path d="M485.05 99.1986C482.621 104.446 480.307 109.327 477.992 114.207C477.41 114.233 476.828 114.259 476.245 114.285C474.78 111.471 473.021 108.769 471.896 105.826C463.37 83.5182 454.837 61.2115 446.598 38.7975C443.676 30.8502 440.271 23.7844 431.271 21.2573C430.271 20.9765 428.78 19.1322 428.992 18.5476C429.411 17.3919 430.717 16.2194 431.923 15.7735C433.42 15.2199 435.187 15.2821 436.837 15.2749C445.799 15.2357 454.761 15.2561 463.723 15.2592C465.389 15.2597 467.191 14.8783 468.687 15.3877C470.377 15.9633 471.794 17.3448 473.329 18.3759C472.127 19.5475 471.078 20.9636 469.687 21.8335C467.597 23.1408 464.648 23.5528 463.209 25.2926C461.677 27.1456 460.209 30.5462 460.896 32.5059C467.137 50.3088 473.856 67.9442 480.848 86.7389C481.872 84.5244 482.524 83.3482 482.976 82.0995C487.435 69.7779 491.841 57.4374 496.302 45.1167C499.135 37.2942 494.405 25.7752 486.927 21.8578C485.415 21.0659 484.397 19.3312 483.152 18.0312C484.783 17.1096 486.398 15.4268 488.048 15.3903C498.669 15.1546 509.3 15.159 519.919 15.4114C521.57 15.4506 523.181 17.1647 524.81 18.1043C523.523 19.3736 522.384 20.8653 520.908 21.8526C519.277 22.9437 517.298 23.4992 515.539 24.4181C511.814 26.3634 510.826 29.6031 512.196 33.2979C518.707 50.8599 525.368 68.3665 531.992 85.9369C532.466 85.7651 532.858 85.7375 532.913 85.5869C538.948 69.0762 545.063 52.5938 550.915 36.0182C553.191 29.5735 552.593 24.1236 544.215 21.5824C542.966 21.2038 542.168 19.344 541.161 18.1695C542.439 17.2506 543.61 16.0633 545.029 15.4966C546.192 15.0318 547.651 15.2617 548.979 15.2589C555.104 15.2458 561.229 15.2207 567.353 15.2884C568.998 15.3065 570.734 15.3699 572.249 15.9128C573.314 16.2945 574.726 17.4789 574.787 18.3861C574.848 19.2797 573.581 20.814 572.591 21.141C564.932 23.6704 561.658 29.8004 559.145 36.7331C551.454 57.9436 543.78 79.1611 535.893 100.299C534.088 105.138 531.453 109.668 528.223 114.296C517.509 94.406 511.576 72.9807 502.471 51.914C496.502 68.0974 490.833 83.4646 485.05 99.1986Z" fill="black"/>
<path d="M710.929 107.525C712.791 106.255 714.416 104.912 716.265 104.432C722.005 102.941 723.904 98.7286 723.931 93.5721C724.056 69.2455 723.977 44.9177 723.997 20.5904C724.001 16.5416 721.533 14.4167 718.423 12.4199C716.685 11.3042 715.476 9.36413 714.029 7.79553C715.886 6.64233 717.609 5.06103 719.629 4.42456C723.892 3.08136 728.328 2.29645 732.662 1.16174C736.436 0.173338 738.042 1.04376 738.004 5.40271C737.818 26.7292 737.886 48.0583 737.977 69.386C737.985 71.2025 738.577 74.4313 739.319 74.5597C741.402 74.9196 744.495 74.7712 745.786 73.4509C751.579 67.5272 757.029 61.2449 762.293 54.837C764.267 52.4332 762.911 50.7612 760.013 49.7487C758.692 49.2874 757.849 47.4606 756.789 46.2531C758.184 45.2709 759.522 43.542 760.983 43.4321C768.441 42.8708 775.931 42.5717 783.409 42.578C784.798 42.5791 786.184 44.3991 787.572 45.3796C786.576 46.5662 785.814 48.3567 784.549 48.8452C772.707 53.4178 766.232 63.9534 758.134 72.6161C757.14 73.6792 757.321 77.5371 758.414 78.5914C768.747 88.562 777.694 100.35 792.142 105.192C793.626 105.689 794.568 107.806 795.761 109.172C794.121 110.081 792.5 111.732 790.837 111.776C781.387 112.026 771.925 112.015 762.475 111.781C760.632 111.736 758.824 110.316 755.906 109.058C759.018 106.805 760.963 105.397 763.631 103.466C760.906 100.39 758.281 97.2986 755.516 94.3363C751.769 90.3203 748.009 86.3062 744.044 82.5098C743 81.5094 740.976 80.6158 739.79 80.9703C738.856 81.2498 738.116 83.4893 737.997 84.917C737.735 88.0609 737.791 91.2487 737.954 94.4062C738.195 99.0565 739.941 102.562 744.821 104.297C746.604 104.931 747.795 107.23 749.256 108.769C747.249 109.818 745.274 111.694 743.23 111.772C734.454 112.109 725.657 111.981 716.87 111.879C714.117 111.847 710.899 112.07 710.929 107.525Z" fill="black"/>
<path d="M181.347 1.71106C183.476 1.24292 185.236 0.91571 188.011 0.399902C188.011 16.2824 188.011 31.5831 188.011 47.3448C193.096 45.4078 197.093 43.3668 201.336 42.3603C218.347 38.3246 233.249 47.9366 237.836 65.5853C244.588 91.5668 222.61 116.337 195.932 112.485C190.266 111.667 184.723 109.618 179.295 107.66C175.566 106.314 174.1 103.433 174.142 99.063C174.384 73.575 174.142 48.0826 174.361 22.5942C174.406 17.3403 172.504 14.1887 167.901 11.9888C166.366 11.2554 165.414 9.30414 164.195 7.90955C165.743 6.82428 167.15 5.27948 168.869 4.7464C172.825 3.52002 176.933 2.78595 181.347 1.71106ZM223.644 82.1776C223.708 74.4077 222.509 66.9543 218.277 60.2271C213.218 52.1848 204.985 48.6668 196.534 50.9849C190.977 52.5092 188.347 55.9609 188.349 61.7282C188.352 71.059 188.329 80.39 188.368 89.7206C188.401 97.5403 192.13 102.132 199.74 103.854C211.641 106.548 219.011 102.196 222.298 90.3841C222.96 88.0025 223.154 85.4904 223.644 82.1776Z" fill="black"/>
<path d="M45.412 67.6619C42.9662 64.3829 45.6083 63.4263 47.4645 62.1274C55.4379 56.5485 61.4341 49.8478 61.1094 39.2569C60.7503 27.5417 46.9607 17.8745 36.0305 22.0377C34.6668 22.5571 33.1517 24.9008 33.1389 26.4114C32.953 48.3959 33.0024 70.3826 33.0167 92.3687C33.0212 99.311 37.3115 102.715 43.2725 104.836C45.6121 105.668 47.8145 106.886 50.0795 107.928C50.043 108.634 50.0066 109.34 49.9701 110.046C47.4394 110.637 44.9166 111.697 42.3766 111.739C31.0997 111.929 19.8166 111.919 8.53891 111.758C6.05872 111.723 3.59152 110.776 1.11832 110.248C0.983032 109.615 0.847748 108.982 0.712463 108.349C2.67786 107.255 4.54453 105.901 6.62549 105.112C16.2059 101.478 17.967 99.1183 17.9833 88.9285C18.0108 71.7728 17.9995 54.6168 17.9832 37.461C17.9724 25.9782 17.3098 25.238 6.27786 21.8336C4.66367 21.3354 3.42239 19.6289 2.00854 18.4814C3.29803 17.4543 4.53293 15.6146 5.88531 15.5237C22.2792 14.4221 38.679 12.0891 55.1143 14.995C56.4155 15.225 57.7044 15.5788 58.9636 15.9849C67.942 18.8814 75.595 23.5186 77.4925 33.5413C79.4301 43.7761 75.5053 52.3337 67.4925 58.6315C61.1637 63.6057 54.7235 68.9783 45.412 67.6619Z" fill="black"/>
<path d="M148.918 47.2553C148.92 64.0586 149.049 80.3918 148.842 96.7207C148.784 101.235 149.972 102.765 154.587 101.647C156.245 101.245 158.282 102.407 160.145 102.855C158.941 104.745 158.158 107.586 156.452 108.342C151.934 110.344 147.02 111.458 142.256 112.899C138.19 114.129 135.829 112.957 135.705 108.359C135.666 106.886 135.167 105.424 134.73 103.203C133.16 104.356 131.871 105.237 130.654 106.208C123.965 111.546 116.156 112.732 108.004 111.897C100.686 111.147 94.2303 102.159 94.1113 92.8417C93.9794 82.5111 94.0227 72.1772 94.0968 61.8455C94.1284 57.4479 93.6755 53.5716 88.761 51.6838C87.6627 51.2619 86.2968 49.2447 86.5068 48.2772C86.7815 47.0111 88.3242 45.4595 89.6284 45.0771C94.5584 43.6311 99.5958 42.531 104.626 41.4542C108.002 40.7314 107.98 43.1933 107.983 45.4385C108.002 58.7702 107.986 72.102 108.033 85.4337C108.039 87.2438 108.134 89.0959 108.521 90.855C110.253 98.7161 114.457 102.212 121.057 101.455C130.16 100.411 135.022 95.6863 135.071 87.6762C135.127 78.5109 135.002 69.344 135.109 60.1796C135.164 55.4378 133.101 52.8479 128.455 51.6977C126.726 51.2699 125.356 49.3921 123.823 48.1755C125.456 46.7801 126.894 44.6106 128.759 44.142C133.409 42.9735 138.341 42.9269 142.998 41.7766C147.781 40.5953 149.658 41.8987 148.918 47.2553Z" fill="black"/>
<path d="M610.925 112.928C590.991 112.241 576.247 97.5655 575.638 78.2576C575.037 59.2276 589.644 43.0012 608.928 41.2753C629.467 39.437 649.041 56.8766 647.724 75.8399C646.3 96.3297 632.096 110.827 610.925 112.928ZM601.92 99.6377C610.821 107.008 620.338 106.275 625.993 97.7851C633.63 86.3164 632.531 66.0102 623.706 55.5382C614.801 44.9716 600.365 46.7331 595.139 59.5083C589.316 73.7399 591.663 87.1226 601.92 99.6377Z" fill="black"/>
<path d="M271.909 58C271.909 69.6584 271.888 80.8169 271.917 91.9752C271.937 99.6555 273.61 101.861 280.379 104.847C282.172 105.638 283.408 107.692 284.899 109.166C282.937 110.081 280.997 111.726 279.009 111.787C269.73 112.07 260.432 112.094 251.156 111.785C249.03 111.714 246.96 109.957 244.865 108.977C246.424 107.548 247.751 105.576 249.586 104.789C256.251 101.931 257.98 99.7167 257.985 92.4493C258.002 68.9668 257.893 45.4834 258.072 22.0022C258.109 17.1282 256 14.3227 251.996 12.1343C250.434 11.2807 249.346 9.56211 248.042 8.23746C249.624 7.01078 251.032 5.23441 252.823 4.66502C257.397 3.2111 262.163 2.37229 266.814 1.14066C270.798 0.0857922 272.048 1.36692 271.999 5.53959C271.793 22.8576 271.91 40.1795 271.909 58Z" fill="black"/>
<path d="M351.904 81.7098C352.879 84.7845 353.573 87.5489 354.772 90.0741C359.122 99.2417 366.637 102.877 376.461 100.637C379.686 99.9022 382.811 98.7261 386.039 98.0107C387.211 97.751 389.332 97.8588 389.642 98.4829C390.199 99.6044 390.265 101.68 389.554 102.578C387.838 104.745 385.846 107.025 383.451 108.265C372.681 113.84 361.467 115.389 350.648 108.806C339.535 102.044 335.105 91.1165 335.412 78.642C335.718 66.1674 340.525 55.3146 350.706 47.4664C361.682 39.0055 379.278 39.152 388.674 47.7303C391.666 50.4623 394.734 53.4539 391.86 57.9997C389.621 61.54 384.96 61.9915 380.294 59.0516C378.068 57.6495 375.968 55.9321 374.136 54.0431C368.439 48.1715 362.647 48.1921 357.313 54.4907C350.622 62.3924 349.734 71.5535 351.904 81.7098Z" fill="black"/>
<path d="M659.961 104.074C665.381 102.077 666.496 97.7297 666.579 93.1044C666.755 83.2828 666.674 73.4557 666.617 63.6313C666.591 59.123 663.927 56.4059 660.194 54.293C658.789 53.4976 656.83 51.8403 656.919 50.7183C657.026 49.3663 658.811 47.6376 660.275 46.9918C666.422 44.2805 672.721 41.9128 679.838 39.0704C680.168 43.1321 680.401 45.9957 680.664 49.2333C683.94 47.1246 686.705 44.5148 689.972 43.4585C693.75 42.2368 698.021 41.826 701.977 42.186C703.771 42.3493 706.336 44.9838 706.778 46.9053C707.839 51.5134 705.406 55.4743 701.671 57.9427C700.255 58.8788 697.265 58.3975 695.452 57.5635C691.962 55.9584 688.558 53.2025 684.944 56.2544C683.036 57.8652 681.212 60.7237 681.095 63.1049C680.612 72.9067 680.756 82.7415 680.752 92.5641C680.75 98.3419 683.298 101.955 688.583 103.977C689.666 104.392 690.995 104.505 691.801 105.219C693.032 106.31 693.905 107.803 694.93 109.126C693.485 110.04 692.077 111.648 690.586 111.729C686.961 111.927 683.295 111.205 679.649 111.236C673.513 111.29 667.381 111.712 661.244 111.832C658.551 111.884 654.753 112.812 654.44 108.985C654.32 107.519 657.764 105.76 659.961 104.074Z" fill="black"/>
<path d="M799.648 60.3272C802.396 43.4183 819.874 35.9268 834.093 45.1651C836.544 46.7578 838.423 57.3367 836.252 59.0009C833.176 61.3589 831.175 58.851 830.102 56.4385C828.461 52.7519 825.93 50.5974 822.061 49.7655C818.165 48.9278 814.541 49.2527 812.546 53.1192C810.699 56.6994 811.986 60.0656 814.903 62.5079C819.362 66.2413 824.017 69.7448 828.659 73.2534C839.49 81.4401 841.788 86.8136 838.546 96.6734C835.419 106.188 825.949 112.755 815.086 112.913C813.757 112.932 812.421 112.865 811.096 112.746C801.139 111.858 796.405 106.231 797.32 96.2359C797.433 95.0088 797.965 93.0269 798.692 92.8293C799.875 92.5078 801.641 93.0273 802.685 93.819C804.092 94.8852 805.36 96.3932 806.138 97.9806C808.565 102.931 812.758 104.704 817.862 105.006C822.226 105.265 826.138 103.826 827.637 99.6368C829.105 95.5305 828.233 91.2468 824.48 88.3728C819.73 84.7348 814.683 81.4851 809.931 77.8487C804.291 73.5316 799.039 68.855 799.648 60.3272Z" fill="black"/>
<path d="M302.634 92.7891C302.636 83.3303 302.45 74.3407 302.706 65.3637C302.858 60.0321 300.757 56.5407 296.086 54.1852C294.765 53.5194 292.823 51.8635 292.981 50.9901C293.244 49.5374 294.72 47.7965 296.131 47.1505C301.24 44.8114 306.568 42.9566 311.749 40.7654C315.797 39.0529 316.774 40.8886 316.762 44.5508C316.71 59.6908 316.946 74.8351 316.653 89.9697C316.506 97.5684 317.944 103.439 326.495 105.354C327.787 105.644 328.665 107.783 329.735 109.066C328.279 110.002 326.902 111.534 325.349 111.74C322.767 112.082 320.072 111.438 317.425 111.449C311.132 111.477 304.839 111.641 298.547 111.758C297.052 111.785 295.405 112.261 294.101 111.784C292.397 111.161 290.965 109.796 289.416 108.75C290.617 107.549 291.629 105.654 293.052 105.266C299.31 103.559 302.875 100.013 302.634 92.7891Z" fill="black"/>
<path d="M316.533 10.7491C318.786 16.3568 318.014 20.2613 314.296 23.0182C310.857 25.5685 307.175 25.6806 303.71 23.2865C300.067 20.7696 298.859 17.093 300.112 12.829C302.183 5.77786 310.581 4.56998 316.533 10.7491Z" fill="black"/>
</svg>
