<svg width="159" height="41" viewBox="0 0 159 41" fill="none" xmlns="http://www.w3.org/2000/svg">
<path d="M155.431 33.2611C157.402 33.2611 159 34.8693 159 36.8532C159 38.8371 157.402 40.4454 155.431 40.4454H141.481C137.533 40.4454 134.333 37.2249 134.333 33.2523V7.47268C134.333 5.16307 136.193 3.29077 138.488 3.29077C140.783 3.29077 142.644 5.16307 142.644 7.47268V26.068C142.644 30.0406 145.844 33.2611 149.792 33.2611H155.431Z" fill="#353537"/>
<path d="M117.34 7.47268C117.34 5.16307 119.18 3.29077 121.451 3.29077C123.721 3.29077 125.562 5.16308 125.562 7.47268V36.2635C125.562 38.5731 123.721 40.4454 121.451 40.4454C119.18 40.4454 117.34 38.5731 117.34 36.2635V7.47268Z" fill="#353537"/>
<path d="M82.6043 21.6176C82.6043 23.4431 82.8172 25.0896 83.243 26.5571C83.7043 28.0247 84.3431 29.2954 85.1592 30.3692C86.0108 31.4072 87.0399 32.2125 88.2464 32.7852C89.4529 33.3579 90.8368 33.6443 92.3981 33.6443C93.924 33.6443 95.2902 33.3579 96.4967 32.7852C97.7386 32.2125 98.7677 31.4072 99.5838 30.3692C100.435 29.2954 101.074 28.0247 101.5 26.5571C101.961 25.0896 102.192 23.4431 102.192 21.6176C102.192 19.7921 101.961 18.1456 101.5 16.6781C101.074 15.1747 100.435 13.9041 99.5838 12.8661C98.7677 11.7922 97.7386 10.969 96.4967 10.3963C95.2902 9.82359 93.924 9.53724 92.3981 9.53724C90.8368 9.53724 89.4529 9.84149 88.2464 10.45C87.0399 11.0227 86.0108 11.8459 85.1592 12.9197C84.3431 13.9578 83.7043 15.2284 83.243 16.7318C82.8172 18.1993 82.6043 19.8279 82.6043 21.6176ZM110.762 21.6176C110.762 24.8033 110.283 27.6131 109.324 30.047C108.402 32.4452 107.124 34.4675 105.492 36.1141C103.86 37.7248 101.908 38.9418 99.6371 39.765C97.4015 40.5883 94.9885 40.9999 92.3981 40.9999C89.8787 40.9999 87.5012 40.5883 85.2657 39.765C83.0301 38.9418 81.0784 37.7248 79.4106 36.1141C77.7428 34.4675 76.4299 32.4452 75.4718 30.047C74.5137 27.6131 74.0347 24.8033 74.0347 21.6176C74.0347 18.432 74.5315 15.6401 75.525 13.2419C76.5186 10.8079 77.8493 8.76768 79.5171 7.12117C81.2204 5.47466 83.172 4.23978 85.3721 3.41652C87.6077 2.59327 89.9497 2.18164 92.3981 2.18164C94.9176 2.18164 97.2951 2.59327 99.5306 3.41652C101.766 4.23978 103.718 5.47466 105.386 7.12117C107.053 8.76768 108.366 10.8079 109.324 13.2419C110.283 15.6401 110.762 18.432 110.762 21.6176Z" fill="#353537"/>
<path d="M49.6769 40.4454C47.3868 40.4454 45.5303 38.5731 45.5303 36.2635V10.4839C45.5303 6.51123 48.7236 3.29077 52.6628 3.29077H66.7155C68.6386 3.29077 70.1976 4.86302 70.1976 6.8025C70.1976 8.74197 68.6386 10.3142 66.7155 10.3142H57.6779C55.5492 10.3142 53.8236 12.0545 53.8236 14.2013C53.8236 16.348 55.5492 18.0883 57.6779 18.0883H64.908C66.8311 18.0883 68.3901 19.6605 68.3901 21.6C68.3901 23.5395 66.8311 25.1117 64.908 25.1117H60.9561C57.0169 25.1117 53.8236 28.3322 53.8236 32.3048V36.2635C53.8236 38.5731 51.9671 40.4454 49.6769 40.4454Z" fill="#353537"/>
<path d="M29.1678 25.2774C29.1678 33.5757 22.6384 40.3027 14.5839 40.3027C6.52943 40.3027 0 33.5757 0 25.2774C0 21.7241 1.19719 18.4589 3.19866 15.8866C4.87159 13.7365 8.91079 8.39139 11.6986 4.69328C13.1608 2.75361 16.0069 2.75361 17.4692 4.69327C20.257 8.39139 24.2962 13.7365 25.9691 15.8866C27.9706 18.4589 29.1678 21.7241 29.1678 25.2774Z" fill="#353537"/>
</svg>
