<svg width="2500" height="2500" viewBox="0 0 2500 2500" fill="none" xmlns="http://www.w3.org/2000/svg">
<g clip-path="url(#clip0_289_11004)">
<path d="M1250 2500C1940.36 2500 2500 1940.36 2500 1250C2500 559.644 1940.36 0 1250 0C559.644 0 0 559.644 0 1250C0 1940.36 559.644 2500 1250 2500Z" fill="black"/>
<path d="M1288.91 312.5V1005.47L1874.61 1267.19L1288.91 312.5Z" fill="#ADADAD"/>
<path d="M1288.91 312.5L703.125 1267.19L1288.91 1005.47V312.5Z" fill="#F7F7F7"/>
<path d="M1288.91 1716.25V2187.11L1875 1376.25L1288.91 1716.25Z" fill="#ADADAD"/>
<path d="M1288.91 2187.11V1716.17L703.125 1376.25L1288.91 2187.11Z" fill="#F7F7F7"/>
<path d="M1288.91 1607.27L1874.61 1267.19L1288.91 1005.62V1607.27Z" fill="#313131"/>
<path d="M703.125 1267.19L1288.91 1607.27V1005.62L703.125 1267.19Z" fill="#ADADAD"/>
</g>
<defs>
<clipPath id="clip0_289_11004">
<rect width="2500" height="2500" fill="white"/>
</clipPath>
</defs>
</svg>
