<svg xmlns:dc="http://purl.org/dc/elements/1.1/" xmlns:cc="http://creativecommons.org/ns#" xmlns:rdf="http://www.w3.org/1999/02/22-rdf-syntax-ns#" xmlns:svg="http://www.w3.org/2000/svg" xmlns="http://www.w3.org/2000/svg" xmlns:sodipodi="http://sodipodi.sourceforge.net/DTD/sodipodi-0.dtd" xmlns:inkscape="http://www.inkscape.org/namespaces/inkscape" width="276" height="362" viewBox="0 0 73.025 95.779167" version="1.1" id="svg8" inkscape:version="0.92.5 (2060ec1f9f, 2020-04-08)" sodipodi:docname="dodgers la logo.svg">
  <defs id="defs2"/>
  <sodipodi:namedview id="base" pagecolor="#ffffff" bordercolor="#666666" borderopacity="1.0" inkscape:pageopacity="0.0" inkscape:pageshadow="2" inkscape:zoom="2.3789062" inkscape:cx="34.766614" inkscape:cy="173.32231" inkscape:document-units="mm" inkscape:current-layer="layer1" showgrid="false" fit-margin-top="0" fit-margin-left="0" fit-margin-right="0" fit-margin-bottom="0" units="px" inkscape:window-width="1920" inkscape:window-height="1017" inkscape:window-x="1912" inkscape:window-y="70" inkscape:window-maximized="1"/>
  <metadata id="metadata5">
    <rdf:RDF>
      <cc:Work rdf:about="">
        <dc:format>image/svg+xml</dc:format>
        <dc:type rdf:resource="http://purl.org/dc/dcmitype/StillImage"/>
        <dc:title/>
      </cc:Work>
    </rdf:RDF>
  </metadata>
  <g inkscape:label="Layer 1" inkscape:groupmode="layer" id="layer1" transform="translate(-96.016328,-74.855494)">
    <g id="g921" transform="matrix(0.514808,0,0,0.51588477,96.016328,74.855494)" style="fill:#005a9c">
      <path id="path917" d="m 110.426,102.617 v 19.01 l -8.422,0.01 C 101.616,119.987 83.726,45.213 83.726,45.213 H 56.91 c 0,0 -17.856,74.775 -18.244,76.425 h -6.36 V 17.996 H 46.333 V 0 L 0.72,0.118 V 17.996 H 13.933 V 122.52 H 0 v 18.162 h 34.108 c -0.566,2.355 -5.842,24.39 -6.183,25.875 H 14.063 v 19.103 l 47.356,-0.095 V 166.557 H 48.086 c 0.507,-2.344 5.572,-24.357 5.9,-25.875 H 86.66 c 0.364,1.518 5.404,23.53 5.923,25.875 H 79.24 v 19.008 l 47.356,0.095 -0.012,-19.103 h -13.85 c -0.34,-1.485 -5.618,-23.52 -6.17,-25.875 h 22.93 v -38.065 z m -52.09,19.02 c 0.563,-2.378 10.622,-46.25 11.988,-52.292 1.39,6.042 11.435,49.913 11.978,52.293 H 58.335 Z m 81.156,57.957 c 0,-1.295 -0.765,-1.52 -1.884,-1.52 h -2.367 v 4.888 h 1.014 v -1.943 h 0.848 l 1.13,1.942 h 1.12 l -1.178,-1.943 c 0.86,-0.072 1.318,-0.542 1.318,-1.426 z m -1.872,0.553 h -1.366 v -1.177 h 1.13 c 0.484,0 1.096,0 1.096,0.542 0,0.506 -0.306,0.635 -0.86,0.635 z" inkscape:connector-curvature="0"/>
      <path id="path919" d="m 137.196,175.86 c -2.615,0 -4.652,2.097 -4.652,4.7 0,2.58 2.037,4.652 4.652,4.652 2.603,0 4.653,-2.072 4.653,-4.652 -0.002,-2.603 -2.052,-4.7 -4.654,-4.7 z m 0,8.363 c -2.014,0 -3.628,-1.577 -3.628,-3.663 0,-2.108 1.614,-3.687 3.628,-3.687 2.002,0 3.64,1.58 3.64,3.687 0,2.085 -1.64,3.663 -3.64,3.663 z" inkscape:connector-curvature="0"/>
    </g>
  </g>
  <style id="style815" type="text/css">
	.st0{fill:#8CB4C7;}
	.st1{fill:#776441;}
	.st2{fill:#E2A856;}
	.st3{fill:#231F20;}
	.st4{fill:#808285;}
</style>
</svg>