<svg width="2500" height="2500" viewBox="0 0 2500 2500" fill="none" xmlns="http://www.w3.org/2000/svg">
<g clip-path="url(#clip0_301_10988)">
<path d="M1250 2500C1940.36 2500 2500 1940.36 2500 1250C2500 559.644 1940.36 0 1250 0C559.644 0 0 559.644 0 1250C0 1940.36 559.644 2500 1250 2500Z" fill="black"/>
<g clip-path="url(#clip1_301_10988)">
<path d="M1936.86 1598.21L1707.89 1837.53C1702.91 1842.73 1696.89 1846.88 1690.2 1849.71C1683.51 1852.54 1676.29 1854 1668.99 1854H583.581C578.402 1854 573.336 1852.52 569.005 1849.76C564.674 1846.99 561.267 1843.05 559.203 1838.42C557.139 1833.79 556.507 1828.67 557.385 1823.7C558.263 1818.72 560.613 1814.11 564.147 1810.42L793.286 1571.09C798.25 1565.91 804.253 1561.77 810.923 1558.94C817.594 1556.11 824.79 1554.64 832.067 1554.63H1917.42C1922.6 1554.63 1927.66 1556.1 1932 1558.87C1936.32 1561.64 1939.73 1565.58 1941.8 1570.21C1943.86 1574.84 1944.49 1579.95 1943.62 1584.93C1942.74 1589.9 1940.39 1594.52 1936.86 1598.21ZM1707.89 1116.28C1702.91 1111.08 1696.89 1106.94 1690.2 1104.1C1683.51 1101.27 1676.29 1099.81 1668.99 1099.81H583.581C578.402 1099.81 573.336 1101.29 569.005 1104.06C564.674 1106.83 561.267 1110.77 559.203 1115.39C557.139 1120.02 556.507 1125.14 557.385 1130.12C558.263 1135.09 560.613 1139.7 564.147 1143.4L793.286 1382.72C798.25 1387.91 804.253 1392.04 810.923 1394.87C817.594 1397.71 824.79 1399.17 832.067 1399.19H1917.42C1922.6 1399.19 1927.66 1397.71 1932 1394.94C1936.32 1392.17 1939.73 1388.23 1941.8 1383.61C1943.86 1378.98 1944.49 1373.86 1943.62 1368.88C1942.74 1363.91 1940.39 1359.3 1936.86 1355.6L1707.89 1116.28ZM583.581 944.372H1668.99C1676.29 944.375 1683.51 942.915 1690.2 940.083C1696.89 937.25 1702.91 933.105 1707.89 927.906L1936.86 688.582C1940.39 684.891 1942.74 680.275 1943.62 675.301C1944.49 670.326 1943.86 665.21 1941.8 660.581C1939.73 655.951 1936.32 652.011 1932 649.243C1927.66 646.475 1922.6 645 1917.42 645H832.067C824.79 645.012 817.594 646.48 810.923 649.312C804.253 652.144 798.25 656.281 793.286 661.465L564.206 900.79C560.676 904.476 558.327 909.088 557.447 914.056C556.566 919.025 557.193 924.137 559.25 928.765C561.307 933.392 564.705 937.332 569.027 940.105C573.349 942.877 578.407 944.359 583.581 944.372Z" fill="url(#paint0_linear_301_10988)"/>
</g>
</g>
<defs>
<linearGradient id="paint0_linear_301_10988" x1="674.079" y1="1882.81" x2="1779.67" y2="604.036" gradientUnits="userSpaceOnUse">
<stop offset="0.08" stop-color="#9945FF"/>
<stop offset="0.3" stop-color="#8752F3"/>
<stop offset="0.5" stop-color="#5497D5"/>
<stop offset="0.6" stop-color="#43B4CA"/>
<stop offset="0.72" stop-color="#28E0B9"/>
<stop offset="0.97" stop-color="#19FB9B"/>
</linearGradient>
<clipPath id="clip0_301_10988">
<rect width="2500" height="2500" fill="white"/>
</clipPath>
<clipPath id="clip1_301_10988">
<rect width="1387" height="1209" fill="white" transform="translate(557 645)"/>
</clipPath>
</defs>
</svg>
